<svg xmlns="http://www.w3.org/2000/svg" width="1920.381" height="1080.21" viewBox="0 0 1920.381 1080.21">
  <g id="HEADER_IMAGE" data-name="HEADER IMAGE" transform="translate(-0.023 0.086)">
    <path id="Path_1" data-name="Path 1" d="M-1475.849,1078.632c.354-1.86,4.209-10.588,11.474-38,4.466-16.866,9.427-33.584,14.752-49.675,6.648-20.107,13.873-39.291,21.471-57.021,19.319-45.072,41.163-81.113,64.908-107.124a197.841,197.841,0,0,1,21.087-20.068,150.139,150.139,0,0,1,23.128-15.593,121.66,121.66,0,0,1,25.219-10.25,112.2,112.2,0,0,1,27.382-4.048c2.748-.063,5.658-.1,8.649-.1,72.536,0,204.837,18.487,358.041,39.894,52.506,7.337,106.8,14.924,162.207,22.262,62.854,8.326,117.514,15.04,167.1,20.528,127.143,14.07,228.971,20.912,311.3,20.917h.076c20.3,0,39.7-.425,57.658-1.262,18.69-.873,36.39-2.218,52.61-4,16.81-1.846,32.534-4.216,46.735-7.044a333.436,333.436,0,0,0,40.115-10.409,192.8,192.8,0,0,0,32.755-14.113A126.685,126.685,0,0,0-15.8,834.969a97.88,97.88,0,0,0,11.252-9.633,79.329,79.329,0,0,0,9.009-10.751,69.781,69.781,0,0,0,6.647-11.9,68.353,68.353,0,0,0,4.164-13.072,75.359,75.359,0,0,0,1.578-14.244c.928-53.758,1.5-111.459,1.716-171.5.169-48.034.1-97.664-.191-147.512-.5-84.389-1.5-141.043-1.525-142.245A353.6,353.6,0,0,1,22.5,251.081a340.6,340.6,0,0,1,16.177-58.7,326.969,326.969,0,0,1,25.592-53.113A309.944,309.944,0,0,1,98.151,93a289.628,289.628,0,0,1,41.056-38.158,269.2,269.2,0,0,1,47.1-28.8,253.693,253.693,0,0,1,52.035-18.2A249.061,249.061,0,0,1,294.208,1.5L349.12.64h44.367c4.457,0,9.475.1,15.907,0,8.26-.125,22.617-.325,32.68,0,.089,0-.2,578.464-.2,578.464V691.026l.347,125.821.019,63.459s-1.851,193.739-.306,198.375l-567.317-.069Z" transform="translate(1477.08 0.443)" fill="#f5f50f" stroke="#000" stroke-width="2"/>
    <line id="Line_1" data-name="Line 1" y2="1076" transform="translate(1787.5 2.5)" fill="none" stroke="#000" stroke-width="2"/>
  </g>
</svg>
